<svg xmlns="http://www.w3.org/2000/svg" viewBox="0 0 240 240" role="img" aria-labelledby="title desc">
  <title id="title">Góc Dịch Thuật</title>
  <desc id="desc">Biểu tượng quyển sách và ngôi sao</desc>
  <defs>
    <linearGradient id="bg" x1="0" y1="0" x2="1" y2="1">
      <stop offset="0" stop-color="#6558d3"/>
      <stop offset="1" stop-color="#a694ff"/>
    </linearGradient>
  </defs>
  <circle cx="120" cy="120" r="116" fill="url(#bg)"/>
  <path d="M54 72c24-8 45-4 66 11v92c-20-15-42-19-66-11V72Z" fill="#fff" opacity=".96"/>
  <path d="M186 72c-24-8-45-4-66 11v92c20-15 42-19 66-11V72Z" fill="#f1efff"/>
  <path d="m166 45 5 13 13 5-13 5-5 13-5-13-13-5 13-5 5-13Z" fill="#ffe587"/>
  <path d="M120 83v92" fill="none" stroke="#6558d3" stroke-width="5" stroke-linecap="round" opacity=".65"/>
</svg>

